<svg width="28.000000" height="28.000000" viewBox="0 0 28 28" fill="none" xmlns="http://www.w3.org/2000/svg" xmlns:xlink="http://www.w3.org/1999/xlink">
	<desc>
			Created with Pixso.
	</desc>
	<defs>
		<clipPath id="clip401_941">
			<rect id="shopping-bag" rx="0.000000" width="27.000000" height="27.000000" transform="translate(0.500000 0.500000)" fill="white" fill-opacity="0"/>
		</clipPath>
	</defs>
	<g clip-path="url(#clip401_941)">
		<path id="Vector" d="M3.5 7L3.5 23.33C3.5 23.95 3.74 24.54 4.18 24.98C4.62 25.42 5.21 25.66 5.83 25.66L22.16 25.66C22.78 25.66 23.37 25.42 23.81 24.98C24.25 24.54 24.5 23.95 24.5 23.33L24.5 7L21 2.33L7 2.33L3.5 7Z" stroke="#2C2C2C" stroke-opacity="1.000000" stroke-width="2.000000" stroke-linejoin="round"/>
		<path id="Vector" d="M3.5 7L24.5 7" stroke="#2C2C2C" stroke-opacity="1.000000" stroke-width="2.000000" stroke-linejoin="round" stroke-linecap="round"/>
		<path id="Vector" d="M18.66 11.66C18.66 12.9 18.17 14.09 17.3 14.96C16.42 15.84 15.23 16.33 14 16.33C12.76 16.33 11.57 15.84 10.7 14.96C9.82 14.09 9.33 12.9 9.33 11.66" stroke="#2C2C2C" stroke-opacity="1.000000" stroke-width="2.000000" stroke-linejoin="round" stroke-linecap="round"/>
	</g>
</svg>
