<svg width="20.000000" height="20.000000" viewBox="0 0 20 20" fill="none" xmlns="http://www.w3.org/2000/svg" xmlns:xlink="http://www.w3.org/1999/xlink">
	<desc>
			Created with Pixso.
	</desc>
	<defs/>
	<path id="instagram" d="M14.09 0L5.9 0C4.81 0 4.09 0.24 3.49 0.48C2.89 0.72 2.28 1.08 1.68 1.68C1.08 2.28 0.84 2.77 0.48 3.49C0.24 4.09 0.12 4.81 0 5.9L0 14.09C0 15.18 0.24 15.9 0.48 16.5C0.72 17.1 1.08 17.71 1.68 18.31C2.28 18.91 2.77 19.15 3.49 19.51C4.09 19.75 4.81 19.87 5.9 20L14.09 20C15.18 20 15.9 19.75 16.5 19.51C17.1 19.27 17.71 18.91 18.31 18.31C18.91 17.71 19.15 17.22 19.51 16.5C19.75 15.9 19.87 15.18 20 14.09L20 5.9C20 4.81 19.75 4.09 19.51 3.49C19.27 2.89 18.91 2.28 18.31 1.68C17.71 1.08 17.22 0.84 16.5 0.48C15.9 0.24 15.18 0.12 14.09 0ZM5.9 1.8L14.09 1.8C15.06 1.8 15.54 2.04 15.9 2.16C16.38 2.4 16.74 2.53 17.1 2.89C17.47 3.25 17.71 3.61 17.83 4.09C17.95 4.45 18.07 4.93 18.19 5.9L18.19 14.09C18.19 15.06 17.95 15.54 17.83 15.9C17.58 16.38 17.47 16.74 17.1 17.1C16.74 17.46 16.38 17.71 15.9 17.83C15.54 17.95 15.06 18.07 14.09 18.19L5.9 18.19C4.93 18.19 4.45 17.95 4.09 17.83C3.61 17.59 3.25 17.46 2.89 17.1C2.52 16.74 2.28 16.38 2.16 15.9C2.04 15.54 1.92 15.06 1.8 14.09L1.8 5.9C1.8 4.93 2.04 4.45 2.16 4.09C2.41 3.61 2.52 3.25 2.89 2.89C3.25 2.53 3.61 2.28 4.09 2.16C4.45 2.04 4.93 1.92 5.9 1.8ZM16.5 4.69C16.5 5.36 15.96 5.9 15.3 5.9C14.63 5.9 14.09 5.36 14.09 4.69C14.09 4.03 14.63 3.49 15.3 3.49C15.96 3.49 16.5 4.03 16.5 4.69ZM10 4.81C7.1 4.81 4.81 7.1 4.81 10C4.81 12.89 7.1 15.18 10 15.18C12.89 15.18 15.18 12.89 15.18 10C15.18 7.1 12.89 4.81 10 4.81ZM10 13.37C8.19 13.37 6.62 11.92 6.62 10C6.62 8.19 8.07 6.62 10 6.62C11.8 6.62 13.37 8.07 13.37 10C13.37 11.8 11.8 13.37 10 13.37Z" fill="#2C2C2C" fill-opacity="1.000000" fill-rule="evenodd"/>
</svg>
