<svg width="19.599609" height="15.600098" viewBox="0 0 19.5996 15.6001" fill="none" xmlns="http://www.w3.org/2000/svg" xmlns:xlink="http://www.w3.org/1999/xlink">
	<desc>
			Created with Pixso.
	</desc>
	<defs/>
	<path id="Vector" d="M19.59 1.89C18.9 2.2 18.09 2.39 17.3 2.5C18.09 2 18.8 1.2 19.09 0.29C18.3 0.79 17.5 1.1 16.5 1.29C15.8 0.5 14.69 0 13.59 0C11.4 0 9.59 1.79 9.59 4C9.59 4.29 9.59 4.6 9.69 4.89C6.4 4.7 3.4 3.1 1.4 0.7C1.09 1.29 0.9 2 0.9 2.7C0.9 4.1 1.59 5.29 2.69 6C2 6 1.4 5.79 0.9 5.5C0.9 7.39 2.3 9.1 4.09 9.39C3.8 9.5 3.4 9.5 3 9.5C2.69 9.5 2.5 9.5 2.19 9.39C2.69 11 4.19 12.2 6 12.2C4.59 13.29 2.9 13.89 1 13.89C0.69 13.89 0.4 13.89 0 13.79C1.8 14.89 3.9 15.6 6.19 15.6C13.59 15.6 17.59 9.5 17.59 4.2L17.59 3.7C18.4 3.39 19.09 2.7 19.59 1.89Z" fill="#2C2C2C" fill-opacity="1.000000" fill-rule="nonzero"/>
</svg>
