<svg width="59.042969" height="64.002441" viewBox="0 0 59.043 64.0024" fill="none" xmlns="http://www.w3.org/2000/svg" xmlns:xlink="http://www.w3.org/1999/xlink">
	<desc>
			Created with Pixso.
	</desc>
	<defs/>
	<path id="Vector 4" d="M1.64 62.5C4.49 61.69 8.91 59.79 14 56.58C22.07 51.47 31.8 43.02 39.56 30.28M14 56.58C31.13 60.92 63.63 57.71 56.51 10.05C40.76 10.96 30.39 15.89 23.47 22.15C19.42 25.82 16.55 29.95 14.48 33.99C12.79 37.28 11.64 40.51 10.79 43.4C10.02 46.04 9.51 48.4 9.11 50.24M14.48 33.99C14.61 31.24 14.28 23.5 11.99 14.61M10.79 43.4C3.79 37.22 -6.02 20.19 10.79 1.5C21.17 6.06 23.57 17.17 23.47 22.15" stroke="#2C2C2C" stroke-opacity="1.000000" stroke-width="3.000000" stroke-linejoin="round" stroke-linecap="round"/>
</svg>
